# xmcd
#
# Track frame offsets:
#	150
#	14864
#	28555
#	45231
#	64703
#	82420
#	97920
#	115151
#	136966
#	154042
#	167836
#	182538
#	200379
#	217463
#	237463
#	260789
#	277087
#
# Disc length: 3915 seconds
#
# Revision: 1
# Processed by: cddbd v1.5.2PL0 Copyright (c) Steve Scherf et al.
# Submitted via: audiograbber 1.83.01
#
DISCID=fd0f4911
DTITLE=Chartbuster - CB5122-01
DYEAR=1900
DGENRE=Karaoke
TTITLE0=Big and Rich - Loud
TTITLE1=Kenny Chesney - Everybody Wants To Go To Heaven
TTITLE2=Ashton Shephard - Sounds So Good
TTITLE3=Alan Jackson - Country Boy
TTITLE4=Tim Mcgraw - Let It Go
TTITLE5=Gretchen Wilson - Don't Do Me No Good
TTITLE6=Phil Vassar - I Would
TTITLE7=Brad Paisley - Waitin' On A Woman
TTITLE8=Heidi Newfield - Johnny and June
TTITLE9=George Strait - Troubadour
TTITLE10=Chris Young - Voices
TTITLE11=Taylor Swift - Should've Said No
TTITLE12=Blake Shelton - She Wouldn't Be Gone
TTITLE13=Jamey Johnson - In Color
TTITLE14=Carrie Underwood - Just A Dream
TTITLE15=Jimmy Wayne - Do You Believe Me Now
TTITLE16=Bucky Covington - I'll Walk
EXTD=
EXTT0=
EXTT1=
EXTT2=
EXTT3=
EXTT4=
EXTT5=
EXTT6=
EXTT7=
EXTT8=
EXTT9=
EXTT10=
EXTT11=
EXTT12=
EXTT13=
EXTT14=
EXTT15=
EXTT16=
PLAYORDER=
